# xmcd
# Copyright (C) 1995-1998 Ti Kan
#
# Track frame offsets:
#       150
#       18102
#       37570
#       54836
#       78846
#       98787
#       120979
#       138036
#       160551
#
# Disc length: 2525 seconds
#
# Revision: 0
# Processed by: cddbd v1.4PL0 Copyright (c) Steve Scherf et al.
# Submitted via: CD-Transfer v1.0
#
DISCID=4b09db09
DTITLE=Sortiment B - Marke
DYEAR=1999
DGENRE=
TTITLE0=Marke
TTITLE1=Chuefladeblues
TTITLE2=Priis!
TTITLE3=Verbi
TTITLE4=Wält
TTITLE5=Spetz
TTITLE6=Muratori
TTITLE7=S' Läbe Ohni Dech
TTITLE8=Schissideckel
EXTD=
EXTT0=
EXTT1=
EXTT2=
EXTT3=
EXTT4=
EXTT5=
EXTT6=
EXTT7=
EXTT8=
PLAYORDER=
